# xmcd CD database file
#
# Track frame offsets:
#	150
#	35253
#	57937
#	116400
#	162933
#	200428
#	248092
#	275017
#
# Disc length: 4136 seconds
#
# Revision: 0
# Processed by: cddbd v1.5.1PL0 Copyright (c) Steve Scherf et al.
# Submitted via: CDex 1.51
#
DISCID=69102608
DTITLE=Teddy Pantelas - Shooting Star
DYEAR=2004
DGENRE=Jazz
TTITLE0=Sound of One Hand Clapping
TTITLE1=Hercules, Hercules
TTITLE2=Kickin' Back
TTITLE3=Split Second
TTITLE4=Lee Am's Gift
TTITLE5=Tonga's Screams of Joy
TTITLE6=It Makes Me Glad
TTITLE7=Shooting Star
EXTD=YEAR: 2004
EXTT0=
EXTT1=
EXTT2=
EXTT3=
EXTT4=
EXTT5=
EXTT6=
EXTT7=
PLAYORDER=
